Coordinates
nRows=11
nColumns=24

# SIMM Motion File Header:
name Coordinates
datacolumns 24
datarows 11
otherdata 1
range 0.35966999999999999000 0.36967000000000000000
endheader
time	pelvis_tx	pelvis_ty	pelvis_tz	pelvis_tilt	pelvis_list	pelvis_rotation	hip_flexion_r	hip_adduction_r	hip_rotation_r	knee_angle_r	ankle_angle_r	subtalar_angle_r	mtp_angle_r	hip_flexion_l	hip_adduction_l	hip_rotation_l	knee_angle_l	ankle_angle_l	subtalar_angle_l	mtp_angle_l	lumbar_extension	lumbar_bending	lumbar_rotation
      0.35966999999999999000	      0.91315768063887037000	      0.94988567930791912000	     -0.18373241036951385000	      0.21003250239833815000	      3.77223744279838510000	     -0.81223694251075229000	    -12.65480327162952900000	     -1.87093069328593350000	     12.17868973174314300000	     -3.09745665114652800000	     10.33698703115936200000	     -0.00000000000005559954	     -0.00000000000008058604	     25.05129498364450300000	      4.28232660916717830000	     -4.39499220220374910000	    -22.79656638382791600000	     -7.24475451451285140000	     -0.00000000000001600275	      0.00000000000003115726	     -1.63470043932511190000	     -0.47973624905662815000	      5.09791172846788230000
      0.36066999999999999000	      0.91453997211945592000	      0.94964573798053475000	     -0.18362715506236929000	      0.21930342903240271000	      3.78364098586795890000	     -0.88405085994177546000	    -12.73865732590514100000	     -1.89157721307290230000	     12.17536219519095300000	     -3.13541914812506130000	     10.40945657183151100000	     -0.00000000000005566832	     -0.00000000000008123438	     25.04144408323500700000	      4.27375336622347570000	     -4.51373859626532430000	    -22.42721062900489000000	     -7.43379367031037660000	     -0.00000000000001613278	      0.00000000000003141509	     -1.64760535419807930000	     -0.48966524151181079000	      5.14273854633867430000
      0.36166999999999999000	      0.91592143802710591000	      0.94940240344667859000	     -0.18351943858330638000	      0.22952502186782545000	      3.79358812089180160000	     -0.95664276590226405000	    -12.82142751127528900000	     -1.91047279952885060000	     12.17037794530582300000	     -3.17720319172370310000	     10.48357583386548200000	     -0.00000000000005574183	     -0.00000000000008183277	     25.03014233237936600000	      4.26377486179275240000	     -4.62935931570728520000	    -22.06083993027741400000	     -7.62957072650832210000	     -0.00000000000001625854	      0.00000000000003166139	     -1.66210160745478830000	     -0.49845787124763347000	      5.18838003708274090000
      0.36266999999999999000	      0.91730251674451724000	      0.94915738080584522000	     -0.18341060475984625000	      0.24017791055797866000	      3.80275830785907720000	     -1.02952969258474260000	    -12.90362034992414800000	     -1.92842272636596080000	     12.16447914040543700000	     -3.22089008420714460000	     10.55859424329905700000	     -0.00000000000005579958	     -0.00000000000008245167	     25.01830166529765300000	      4.25308658373486900000	     -4.74312320039936350000	    -21.69651666049432800000	     -7.82845757634004260000	     -0.00000000000001638725	      0.00000000000003191091	     -1.67734435969980860000	     -0.50664331772474869000	      5.23436934604224740000
      0.36366999999999999000	      0.91868320827169014000	      0.94891067005803476000	     -0.18330065359198880000	      0.25126209510286229000	      3.81115154676978650000	     -1.10271163998921140000	    -12.98523584185172000000	     -1.94542699358423300000	     12.15766578048979500000	     -3.26647982557538620000	     10.63451180013223200000	     -0.00000000000005584155	     -0.00000000000008309107	     25.00592208198987300000	      4.24168853204982450000	     -4.85503025034155920000	    -21.33424081965564100000	     -8.03045421980553800000	     -0.00000000000001651891	      0.00000000000003216365	     -1.69333361093314050000	     -0.51422158094315651000	      5.28070647321719470000
      0.36466999999999999000	      0.92006389979886294000	      0.94866395931022429000	     -0.18319070242413138000	      0.26234627964774609000	      3.81954478568049540000	     -1.17589358739368020000	    -13.06685133377929200000	     -1.96243126080250450000	     12.15085242057415400000	     -3.31206956694362820000	     10.71042935696540800000	     -0.00000000000005588353	     -0.00000000000008373047	     24.99354249868208900000	      4.23029048036478010000	     -4.96693730028375400000	    -20.97196497881695600000	     -8.23245086327103340000	     -0.00000000000001665056	      0.00000000000003241640	     -1.70932286216647290000	     -0.52179984416156389000	      5.32704360039214200000
      0.36567000000000000000	      0.92144373555102776000	      0.94841317719335083000	     -0.18307829172131876000	      0.27438995189833165000	      3.82593944045555160000	     -1.24956845094045700000	    -13.14697242410270500000	     -1.97697573069200040000	     12.14157316837626900000	     -3.36228424328900120000	     10.78792096598843700000	     -0.00000000000005588925	     -0.00000000000008449994	     24.98028857049542500000	      4.21715229817821770000	     -5.07358605503494960000	    -20.61614789156636400000	     -8.44130342973097750000	     -0.00000000000001678495	      0.00000000000003268166	     -1.72703070579358870000	     -0.52782512498647671000	      5.37408484070340010000
      0.36667000000000000000	      0.92282357130319248000	      0.94816239507647737000	     -0.18296588101850614000	      0.28643362414891721000	      3.83233409523060780000	     -1.32324331448723380000	    -13.22709351442611800000	     -1.99152020058149630000	     12.13229391617838500000	     -3.41249891963437420000	     10.86541257501146900000	     -0.00000000000005589498	     -0.00000000000008526941	     24.96703464230875700000	      4.20401411599165530000	     -5.18023480978614530000	    -20.26033080431577100000	     -8.65015599619092160000	     -0.00000000000001691933	      0.00000000000003294693	     -1.74473854942070480000	     -0.53385040581138943000	      5.42112608101465910000
      0.36767000000000000000	      0.92420324043206903000	      0.94791030158868783000	     -0.18285252540757244000	      0.29886538269833596000	      3.83803939021909990000	     -1.39713347259810930000	    -13.30670599783689000000	     -2.00522184872734280000	     12.12213032821400400000	     -3.46440456390591530000	     10.94333096769400100000	     -0.00000000000005589119	     -0.00000000000008604237	     24.95332383496733200000	      4.19028222747924330000	     -5.28482536962540550000	    -19.90677352774518000000	     -8.86151113072169850000	     -0.00000000000001705357	      0.00000000000003321151	     -1.76310157086916840000	     -0.53937214397857736000	      5.46848034430030340000
      0.36867000000000000000	      0.92558277447820703000	      0.94765642169632336000	     -0.18273768319034764000	      0.31193995396974411000	      3.84275009434317290000	     -1.47140970842768740000	    -13.38562899864638900000	     -2.01772129409613310000	     12.11070621372192400000	     -3.51882593428171480000	     11.02185222825659000000	     -0.00000000000005586847	     -0.00000000000008684663	     24.93874796374731800000	      4.17568778133196970000	     -5.38633603784878990000	    -19.55636868233424900000	     -9.07639953488404140000	     -0.00000000000001718639	      0.00000000000003346647	     -1.78250059018277280000	     -0.54418896401738770000	      5.51637182400240980000
      0.36967000000000000000	      0.92696240314599432000	      0.94740111670298277000	     -0.18262121587861296000	      0.32577870451062396000	      3.84654510523367450000	     -1.54619829372107850000	    -13.46400937238999200000	     -2.02914259636469870000	     12.09815352694623200000	     -3.57572157919179690000	     11.10090174148085000000	     -0.00000000000005581745	     -0.00000000000008773428	     24.92294753835581400000	      4.16028678125765340000	     -5.48478161596033780000	    -19.20864169836229300000	     -9.29438004372861040000	     -0.00000000000001731537	      0.00000000000003369458	     -1.80304206962776180000	     -0.54840165764423698000	      5.56493588403074390000
